<svg width="95" height="95" viewBox="0 0 95 95" fill="none" xmlns="http://www.w3.org/2000/svg">
<path d="M19.7917 83.125H75.2083C79.5806 83.125 83.125 79.5806 83.125 75.2083V19.7917C83.125 15.4194 79.5806 11.875 75.2083 11.875H19.7917C15.4194 11.875 11.875 15.4194 11.875 19.7917V75.2083C11.875 79.5806 15.4194 83.125 19.7917 83.125ZM19.7917 83.125L63.3333 39.5833L83.125 59.375M39.5833 33.6458C39.5833 36.925 36.925 39.5833 33.6458 39.5833C30.3666 39.5833 27.7083 36.925 27.7083 33.6458C27.7083 30.3666 30.3666 27.7083 33.6458 27.7083C36.925 27.7083 39.5833 30.3666 39.5833 33.6458Z" stroke="#101828" stroke-width="3.5" stroke-linecap="round" stroke-linejoin="round"/>
</svg>
